<svg width="15" height="12" viewBox="0 0 15 12" fill="none" xmlns="http://www.w3.org/2000/svg">
<path d="M12.8333 5.33333H12.1667V2.66667H12.8333V0.666667H14.1667V2.66667H14.8333V5.33333H14.1667V10C14.1667 10.5304 13.956 11.0391 13.5809 11.4142C13.2058 11.7893 12.6971 12 12.1667 12C11.6362 12 11.1275 11.7893 10.7525 11.4142C10.3774 11.0391 10.1667 10.5304 10.1667 10V7.33333H8.83334V10.6667H9.50001V12H0.833344V10.6667H1.50001V0.666667C1.50001 0.489856 1.57025 0.320286 1.69527 0.195262C1.8203 0.0702379 1.98987 0 2.16668 0H8.16668C8.34349 0 8.51306 0.0702379 8.63808 0.195262C8.76311 0.320286 8.83334 0.489856 8.83334 0.666667V6H10.1667C10.5203 6 10.8594 6.14048 11.1095 6.39052C11.3595 6.64057 11.5 6.97971 11.5 7.33333V10C11.5 10.1768 11.5702 10.3464 11.6953 10.4714C11.8203 10.5964 11.9899 10.6667 12.1667 10.6667C12.3435 10.6667 12.5131 10.5964 12.6381 10.4714C12.7631 10.3464 12.8333 10.1768 12.8333 10V5.33333ZM7.50001 10.6667V1.33333H2.83334V10.6667H7.50001ZM5.50001 5.33333H7.50001L4.83334 9.33333V6.66667H2.83334L5.50001 2.66667V5.33333Z" fill="white"/>
</svg>
