<svg width="15" height="12" viewBox="0 0 15 12" fill="none" xmlns="http://www.w3.org/2000/svg">
<path d="M2.16668 1.33333V10.6667H12.8333V1.33333H2.16668ZM1.50001 0H13.5C13.6768 0 13.8464 0.0702379 13.9714 0.195262C14.0964 0.320286 14.1667 0.489856 14.1667 0.666667V11.3333C14.1667 11.5101 14.0964 11.6797 13.9714 11.8047C13.8464 11.9298 13.6768 12 13.5 12H1.50001C1.3232 12 1.15363 11.9298 1.02861 11.8047C0.903581 11.6797 0.833344 11.5101 0.833344 11.3333V0.666667C0.833344 0.489856 0.903581 0.320286 1.02861 0.195262C1.15363 0.0702379 1.3232 0 1.50001 0ZM9.36201 4.52867L8.16668 3.33333H11.5V6.66667L10.3047 5.47133L7.72868 8.04733L6.31468 6.63333L4.42868 8.51867L3.48601 7.576L6.31468 4.74733L7.72868 6.162L9.36201 4.52867Z" fill="white"/>
</svg>
