<svg width="15" height="14" viewBox="0 0 15 14" fill="none" xmlns="http://www.w3.org/2000/svg">
<path d="M7.50001 0.333374C11.182 0.333374 14.1667 3.31804 14.1667 7.00004C14.1667 10.682 11.182 13.6667 7.50001 13.6667C3.81801 13.6667 0.833344 10.682 0.833344 7.00004C0.833344 3.31804 3.81801 0.333374 7.50001 0.333374ZM7.50001 1.66671C6.08552 1.66671 4.72897 2.22861 3.72877 3.2288C2.72858 4.229 2.16668 5.58555 2.16668 7.00004C2.16668 8.41453 2.72858 9.77108 3.72877 10.7713C4.72897 11.7715 6.08552 12.3334 7.50001 12.3334C8.9145 12.3334 10.2711 11.7715 11.2712 10.7713C12.2714 9.77108 12.8333 8.41453 12.8333 7.00004C12.8333 5.58555 12.2714 4.229 11.2712 3.2288C10.2711 2.22861 8.9145 1.66671 7.50001 1.66671ZM10.0553 3.89137C10.1318 3.83774 10.2248 3.81281 10.3178 3.82098C10.4109 3.82915 10.4981 3.86989 10.564 3.93604C10.6298 4.00187 10.6702 4.0889 10.6779 4.18168C10.6856 4.27445 10.6601 4.36694 10.606 4.44271C9.15268 6.47337 8.35268 7.56137 8.20734 7.70737C8.01962 7.89472 7.76523 7.99994 7.50001 7.99994C7.23479 7.99994 6.9804 7.89472 6.79268 7.70737C6.60533 7.51965 6.50011 7.26526 6.50011 7.00004C6.50011 6.73482 6.60533 6.48044 6.79268 6.29271C7.04201 6.04404 8.12934 5.24337 10.0553 3.89137ZM11.1667 6.33337C11.3435 6.33337 11.5131 6.40361 11.6381 6.52864C11.7631 6.65366 11.8333 6.82323 11.8333 7.00004C11.8333 7.17685 11.7631 7.34642 11.6381 7.47145C11.5131 7.59647 11.3435 7.66671 11.1667 7.66671C10.9899 7.66671 10.8203 7.59647 10.6953 7.47145C10.5702 7.34642 10.5 7.17685 10.5 7.00004C10.5 6.82323 10.5702 6.65366 10.6953 6.52864C10.8203 6.40361 10.9899 6.33337 11.1667 6.33337ZM3.83334 6.33337C4.01015 6.33337 4.17972 6.40361 4.30475 6.52864C4.42977 6.65366 4.50001 6.82323 4.50001 7.00004C4.50001 7.17685 4.42977 7.34642 4.30475 7.47145C4.17972 7.59647 4.01015 7.66671 3.83334 7.66671C3.65653 7.66671 3.48696 7.59647 3.36194 7.47145C3.23691 7.34642 3.16668 7.17685 3.16668 7.00004C3.16668 6.82323 3.23691 6.65366 3.36194 6.52864C3.48696 6.40361 3.65653 6.33337 3.83334 6.33337ZM5.37868 3.93604C5.50368 4.06122 5.57384 4.23094 5.57371 4.40785C5.57359 4.58475 5.50319 4.75437 5.37801 4.87937C5.25283 5.00438 5.08312 5.07454 4.90621 5.07441C4.7293 5.07429 4.55968 5.00389 4.43468 4.87871C4.37278 4.81672 4.3237 4.74316 4.29023 4.6622C4.25677 4.58125 4.23958 4.4945 4.23964 4.4069C4.2397 4.31931 4.25702 4.23258 4.2906 4.15167C4.32417 4.07077 4.37336 3.99727 4.43534 3.93537C4.56053 3.81037 4.73024 3.74021 4.90715 3.74034C4.99475 3.7404 5.08147 3.75771 5.16238 3.79129C5.24328 3.82487 5.31678 3.87406 5.37868 3.93604ZM7.50001 2.66671C7.67682 2.66671 7.84639 2.73695 7.97141 2.86197C8.09644 2.98699 8.16668 3.15656 8.16668 3.33337C8.16668 3.51019 8.09644 3.67975 7.97141 3.80478C7.84639 3.9298 7.67682 4.00004 7.50001 4.00004C7.3232 4.00004 7.15363 3.9298 7.02861 3.80478C6.90358 3.67975 6.83334 3.51019 6.83334 3.33337C6.83334 3.15656 6.90358 2.98699 7.02861 2.86197C7.15363 2.73695 7.3232 2.66671 7.50001 2.66671Z" fill="white"/>
</svg>
