<svg width="32" height="32" viewBox="0 0 32 32" fill="none" xmlns="http://www.w3.org/2000/svg">
<path d="M32 16C32 24.8366 24.8366 32 16 32C7.16344 32 0 24.8366 0 16C0 7.16344 7.16344 0 16 0C24.8366 0 32 7.16344 32 16Z" fill="#111213"/>
<path d="M12.6667 10.1667C12.6667 9.28261 13.0179 8.43477 13.643 7.80965C14.2681 7.18453 15.116 6.83334 16 6.83334C16.8841 6.83334 17.7319 7.18453 18.357 7.80965C18.9822 8.43477 19.3334 9.28261 19.3334 10.1667V14.5458C20.3525 15.2555 21.1186 16.2719 21.5201 17.4471C21.9216 18.6222 21.9376 19.8949 21.5657 21.0798C21.1938 22.2647 20.4534 23.3 19.4524 24.035C18.4514 24.77 17.2419 25.1663 16 25.1663C14.7581 25.1663 13.5487 24.77 12.5476 24.035C11.5466 23.3 10.8063 22.2647 10.4344 21.0798C10.0625 19.8949 10.0785 18.6222 10.48 17.4471C10.8815 16.2719 11.6475 15.2555 12.6667 14.5458V10.1667ZM13.62 15.9125C12.8918 16.4192 12.3444 17.1452 12.0574 17.9846C11.7704 18.8241 11.7588 19.7332 12.0244 20.5797C12.2899 21.4262 12.8187 22.1658 13.5338 22.6909C14.2489 23.2161 15.1129 23.4992 16 23.4992C16.8872 23.4992 17.7512 23.2161 18.4662 22.6909C19.1813 22.1658 19.7101 21.4262 19.9757 20.5797C20.2412 19.7332 20.2296 18.8241 19.9426 17.9846C19.6557 17.1452 19.1082 16.4192 18.38 15.9125L17.6667 15.415V10.1667C17.6667 9.72464 17.4911 9.30072 17.1785 8.98816C16.866 8.6756 16.442 8.5 16 8.5C15.558 8.5 15.1341 8.6756 14.8215 8.98816C14.509 9.30072 14.3334 9.72464 14.3334 10.1667V15.415L13.62 15.9125ZM12.6667 19.3333H19.3334C19.3334 20.2174 18.9822 21.0652 18.357 21.6904C17.7319 22.3155 16.8841 22.6667 16 22.6667C15.116 22.6667 14.2681 22.3155 13.643 21.6904C13.0179 21.0652 12.6667 20.2174 12.6667 19.3333Z" fill="white"/>
</svg>
